<svg xmlns="http://www.w3.org/2000/svg" viewBox="0 0 217.02 35.53"><defs><style>.cls-1{fill:#00e1ff;}</style></defs><title>Asset 2neonblue</title><g id="Layer_2" data-name="Layer 2"><g id="Layer_2-2" data-name="Layer 2"><path class="cls-1" d="M9.73,7.83v.34H7.9V7.74C7.9,6,7.12,4.85,5,4.85S2.13,6,2.13,7.9v3.71c0,1.77.82,3,2.89,3S7.9,13.42,7.9,11.75v-.53H9.73v.36c0,2.81-1.49,4.68-4.72,4.68S.26,14.39.26,11.58V7.83C.26,5,1.75,3.15,5,3.15S9.73,5,9.73,7.83Z"/><path class="cls-1" d="M15.13,16.09V11.83L10.61,3.32h2.05l2.19,4.22c.46.87.79,1.6,1.18,2.49h.07c.39-.87.73-1.62,1.21-2.52l2.18-4.19h2L17,11.83v4.26Z"/><path class="cls-1" d="M23.46,3.32h4.83c2.95,0,4.31,1.19,4.31,3.16v.38A2.43,2.43,0,0,1,31,9.41a2.81,2.81,0,0,1,2,2.88v.46c0,2-1.33,3.34-4.31,3.34H23.46Zm4.68,5.45c1.84,0,2.61-.62,2.61-1.86V6.69c0-1.09-.64-1.76-2.66-1.76H25.24V8.77Zm3,3.81v-.22c0-1.43-.95-2.09-2.86-2.09h-3v4.22h3.21C30.44,14.49,31.12,13.74,31.12,12.58Z"/><path class="cls-1" d="M43.57,5h-6V8.75h5.21v1.7H37.58v3.94H44v1.7H35.75V3.32h7.82Z"/><path class="cls-1" d="M55.9,7.54a3.38,3.38,0,0,1-2.62,3.61l2.81,4.94H53.93l-2.51-4.56h-3.2v4.56H46.37V3.32h4.8c3.29,0,4.73,1.61,4.73,3.91Zm-1.85,0v0c0-1.6-.89-2.49-2.93-2.49h-2.9V9.91h2.9C53.14,9.91,54.05,9.07,54.05,7.54Z"/><path class="cls-1" d="M9.57,22.91v.41H7.78v-.26C7.78,21.82,7,21,4.92,21S2,21.75,2,22.86v0c0,1.5,1.41,1.64,3.47,2.1s4.14,1,4.14,3.75v.13c0,1.93-1.65,3.51-4.77,3.51C1.45,32.38,0,30.92,0,28.7v-.48H1.79v.33c0,1.16.58,2.13,3,2.13,2.28,0,2.95-1,2.95-1.86V28.7c0-1.36-1.38-1.69-3.43-2.11s-4.2-.9-4.2-3.71v-.11c0-2.07,1.61-3.52,4.73-3.52S9.57,20.71,9.57,22.91Z"/><path class="cls-1" d="M20.18,21.12h-6v3.73H19.4v1.7H14.19v3.94h6.39v1.7H12.37V19.42h7.81Z"/><path class="cls-1" d="M32,23.93v.34H30.15v-.42c0-1.77-.78-2.9-2.88-2.9s-2.9,1.16-2.9,3.05v3.71c0,1.77.82,2.95,2.9,2.95a2.54,2.54,0,0,0,2.88-2.81v-.53H32v.36c0,2.81-1.48,4.68-4.72,4.68s-4.75-1.87-4.75-4.68V23.93c0-2.81,1.5-4.68,4.77-4.68S32,21.12,32,23.93Z"/><path class="cls-1" d="M36.38,27.63c0,1.77.82,3,3.07,3s3.06-1.24,3.06-3V19.42h1.88v8.26c0,2.81-1.57,4.68-4.94,4.68s-4.92-1.87-4.92-4.68V19.42h1.85Z"/><path class="cls-1" d="M57.11,23.64a3.38,3.38,0,0,1-2.62,3.61l2.81,4.94H55.14l-2.51-4.56h-3.2v4.56H47.57V19.42h4.81c3.28,0,4.73,1.62,4.73,3.92Zm-1.85,0v0c0-1.6-.89-2.49-2.93-2.49h-2.9V26h2.9C54.35,26,55.26,25.18,55.26,23.64Z"/><path class="cls-1" d="M59.84,19.42h1.85V32.19H59.84Z"/><path class="cls-1" d="M67.67,21.12h-4v-1.7h9.83v1.7h-4V32.19H67.67Z"/><path class="cls-1" d="M78.57,32.19V27.93l-4.51-8.51h2l2.2,4.22c.46.87.79,1.6,1.18,2.49h.07c.39-.87.73-1.62,1.2-2.52l2.19-4.19h2l-4.53,8.51v4.26Z"/><path class="cls-1" d="M128.47,13.25,130,9a.2.2,0,0,1,.19-.17c.1,0,.15.06.19.17l1.57,4.29Z"/><path class="cls-1" d="M130.18,8.79A.2.2,0,0,0,130,9l-1.52,4.29h3.47L130.37,9C130.33,8.85,130.28,8.79,130.18,8.79Z"/><path class="cls-1" d="M92.43,0V35.53H207.56L217,18.94V0ZM104,16.18a3.61,3.61,0,0,0,3.44-2.2H110a6.2,6.2,0,0,1-12.14-1.64A6.2,6.2,0,0,1,110,10.69h-2.53A3.62,3.62,0,0,0,104,8.5a3.67,3.67,0,0,0-3.78,3.84A3.67,3.67,0,0,0,104,16.18Zm18.54,2.1h-2.36v-5h-5.85v5H112V6.4h2.37V11h5.85V6.4h2.36Zm11.24,0-1-2.77h-5.09l-1,2.77h-2.43l3.87-10.34c.44-1.18.94-1.62,2-1.62a2.09,2.09,0,0,1,2.21,1.62l3.9,10.34Zm11.74,0h-5.68a1.81,1.81,0,0,1-2-2V6.4h2.36v9.18a.4.4,0,0,0,.44.44h4.86Zm9.35,0H149.2a1.81,1.81,0,0,1-2-2V6.4h2.36v9.18A.4.4,0,0,0,150,16h4.86Zm10.3,0h-6.67a1.81,1.81,0,0,1-2-2V8.38a1.81,1.81,0,0,1,2-2h6.59V8.65h-5.77a.41.41,0,0,0-.44.44v2h5.91v2.2h-5.91v2.28a.4.4,0,0,0,.44.44h5.85Zm3.34,11.49h-1.91a.7.7,0,0,1-.75-.75V25.23a.7.7,0,0,1,.75-.75h1.73a1.42,1.42,0,0,1,1.6,1.4,1.21,1.21,0,0,1-.79,1.15,1.28,1.28,0,0,1,1,1.26A1.48,1.48,0,0,1,168.52,29.77Zm6.47,0H172.1a.7.7,0,0,1-.75-.75V25.23a.71.71,0,0,1,.75-.75H175v.68h-2.68a.19.19,0,0,0-.21.21v1.37h2.77v.65h-2.77v1.49a.2.2,0,0,0,.21.22H175Zm-1.45-13.52-3-7.11c-.09-.21-.18-.29-.33-.29a.28.28,0,0,0-.31.32v9.11h-2.28V9a2.35,2.35,0,0,1,2.49-2.67c1.12,0,1.83.46,2.53,2.1l3,7.12c.09.21.19.29.34.29a.28.28,0,0,0,.3-.32V6.4h2.3v9.29c0,1.72-.9,2.66-2.45,2.66C175,18.35,174.23,17.87,173.54,16.25Zm6,13.52H177a.69.69,0,0,1-.74-.75V24.48h.71v4.39a.21.21,0,0,0,.21.23h2.39ZM185,27.63a2.24,2.24,0,0,1-2.49,2.21,2.63,2.63,0,0,1-2.76-2.71,2.59,2.59,0,0,1,2.71-2.71A2.5,2.5,0,0,1,185,26.19h-.76a1.82,1.82,0,0,0-1.77-1.1,2,2,0,0,0,.06,4.07c1,0,1.72-.56,1.72-1.29v0a.11.11,0,0,0-.12-.12h-1.85v-.64h2.34a.38.38,0,0,1,.39.41Zm1.9,2.14h-.71V24.48h.71Zm-6.24-17.43a5.85,5.85,0,0,1,6.14-6.1,5.7,5.7,0,0,1,5.82,4.22H190.1a3.41,3.41,0,0,0-3.29-2,3.62,3.62,0,0,0-3.75,3.83A3.73,3.73,0,0,0,187,16.18c1.95,0,3-1,3-1.85v-.07c0-.2-.08-.28-.28-.28h-3.27V11.85h5A1.08,1.08,0,0,1,192.64,13v.38c0,3.46-2.68,5.06-5.68,5.06A6,6,0,0,1,180.67,12.34Zm12.08,15.38a2.18,2.18,0,0,1-4.35,0V24.48h.71v3.24a1.47,1.47,0,0,0,2.93,0V24.48h.71Zm7.51,2.05h-.71V25.39c0-.1-.05-.15-.13-.15s-.11,0-.15.13L198,28.12a.74.74,0,0,1-.74.54.72.72,0,0,1-.73-.54l-1.3-2.75c0-.09-.08-.13-.14-.13s-.13.05-.13.15v4.38h-.71V25.34c0-.59.25-.89.77-.89s.65.17.89.77l1.21,2.58c0,.07.07.11.14.11a.16.16,0,0,0,.15-.11l1.2-2.58c.23-.6.49-.77.9-.77s.77.3.77.89Zm3.21-11.49H196.8a1.81,1.81,0,0,1-2-2V8.38a1.81,1.81,0,0,1,2-2h6.6V8.65h-5.78a.41.41,0,0,0-.44.44v2h5.91v2.2h-5.91v2.28a.4.4,0,0,0,.44.44h5.85Z"/><path class="cls-1" d="M169.22,25.93c0-.54-.39-.78-.92-.78h-1.51a.21.21,0,0,0-.22.22v1.39h1.75A.81.81,0,0,0,169.22,25.93Z"/><path class="cls-1" d="M168.4,27.4h-1.83v1.48a.21.21,0,0,0,.22.23h1.74a.81.81,0,0,0,.88-.83A.91.91,0,0,0,168.4,27.4Z"/></g></g></svg>